<svg width="100" height="100" viewBox="0 0 100 100" fill="none" xmlns="http://www.w3.org/2000/svg">
<g clip-path="url(#clip0_1116_41)">
<path fill-rule="evenodd" clip-rule="evenodd" d="M20 0C8.95431 0 0 8.9543 0 20V80C0 91.0457 8.9543 100 20 100H80C91.0457 100 100 91.0457 100 80V20C100 8.95431 91.0457 0 80 0H20ZM31.1321 19.3396C31.1321 24.5327 27.7753 28.9418 23.1132 30.5154V69.5657C23.7349 69.7755 24.3333 70.0357 24.9037 70.3415L62.1354 33.1099C60.4275 30.5103 59.434 27.3995 59.434 24.0566C59.434 14.9387 66.8255 7.54718 75.9434 7.54718C85.0613 7.54718 92.4528 14.9387 92.4528 24.0566C92.4528 33.1745 85.0613 40.566 75.9434 40.566C72.903 40.566 70.0545 39.7442 67.6081 38.3105L30.0716 75.847C30.2379 76.2111 30.3862 76.585 30.5154 76.9678H69.4846C71.0582 72.3057 75.4673 68.949 80.6604 68.949C87.1732 68.949 92.4528 74.2286 92.4528 80.7414C92.4528 87.2542 87.1732 92.5339 80.6604 92.5339C75.4673 92.5339 71.0582 89.1771 69.4846 84.515H30.5154C28.9418 89.1771 24.5327 92.5339 19.3396 92.5339C12.8268 92.5339 7.54718 87.2542 7.54718 80.7414C7.54718 75.5484 10.9039 71.1393 15.566 69.5657V30.5154C10.9039 28.9418 7.54718 24.5327 7.54718 19.3396C7.54718 12.8268 12.8268 7.54718 19.3396 7.54718C25.8524 7.54718 31.1321 12.8268 31.1321 19.3396Z" fill="#FF4800"/>
</g>
<defs>
<clipPath id="clip0_1116_41">
<rect width="100" height="100" fill="white"/>
</clipPath>
</defs>
</svg>
